<?xml version="1.0" encoding="iso-8859-1"?>
<!-- Generator: Adobe Illustrator 16.0.0, SVG Export Plug-In . SVG Version: 6.00 Build 0)  -->
<!DOCTYPE svg PUBLIC "-//W3C//DTD SVG 1.1//EN" "http://www.w3.org/Graphics/SVG/1.1/DTD/svg11.dtd">
<svg version="1.1" id="Capa_1" xmlns="http://www.w3.org/2000/svg" xmlns:xlink="http://www.w3.org/1999/xlink" x="0px" y="0px"
	 width="385.03px" height="385.03px" viewBox="0 0 385.03 385.03" style="enable-background:new 0 0 385.03 385.03;"
	 xml:space="preserve">
<g>
	<g>
		<path style="fill: #1de9b6;" d="M257.292,198.489c-0.122-1.061-0.269-2.096-0.408-3.121c-0.146-1.029-0.25-2.107-0.414-3.118
			c-12.952-78.172-89.228-93.228-111.63-95.974v0.018c-0.255-0.03-0.505-0.085-0.761-0.11c-0.834-0.1-1.577-0.183-2.232-0.243
			c-0.037,0-0.082,0-0.119,0c-1.035-0.07-2.076-0.052-3.118-0.052v-0.21h-12.434c-3.44,0-8.634,1.422-11.673,3.041
			c-11.527,6.135-41.032,20.323-84.874,30.927v107.105c10.071-0.018,22.018-0.024,35.08-0.024c17.598,0,37.168,0.013,56.724,0.03
			c8.799,0.006,17.576,0.019,26.186,0.031c2.338,0,4.665,0.006,6.978,0.006c7.371,0.012,14.56,0.018,21.461,0.03
			c1.766,0,3.522,0.006,5.252,0.006c10.912,0.019,20.958,0.03,29.667,0.055c0.292,0,0.584,0,0.877,0c0.767,0,1.485,0,2.234,0
			c1.054,0,2.113,0.013,3.118,0.013c16.179,0.024,26.348,0.049,26.348,0.049s3.093-9.853,1.467-20.691
			c-0.919-6.15-3.403-12.604-8.811-17.78c-1.151-1.096-2.441-2.144-3.885-3.114c-1.718-1.16-3.66-2.201-5.827-3.118
			c-4.5-1.902-9.992-3.242-16.752-3.741c-2.533-0.186-4.975-0.341-7.374-0.494c-42.91-2.643-63.769-0.048-63.769-27.763
			c0-1.97,0-3.967,0-5.974c0.144-0.058,0.287-0.076,0.43-0.143c0.91-0.399,1.796-0.587,2.688-0.743
			c1.004-0.168,2.046-0.244,3.117-0.244c0.226,0,0.423-0.03,0.655-0.024c0.162,0,0.286-0.069,0.448-0.076
			c26.938,2.015,43.014,14.842,52.458,28.485c3.754,0.21,7.688,0.454,11.804,0.752c11.947,0.88,21.428,4.241,28.382,9.959
			c1.175,0.975,2.277,2.006,3.306,3.118c0.908,0.977,1.754,2.037,2.546,3.121c0.237,0.323,0.512,0.615,0.736,0.944
			c3.489,5.139,5.255,10.771,6.034,16.13c1.736,11.995-1.51,22.615-1.711,23.255l-1.376,4.365l-4.579-0.012
			c0,0-10.169-0.013-26.335-0.049v46.24H385.03v-90.861H257.292z"/>
		<path style="fill: #1de9b6;" d="M174.183,243.062c-6.914-0.012-14.105-0.019-21.467-0.03c-2.314,0-4.634-0.007-6.978-0.007
			c-8.461-0.012-17.086-0.018-25.702-0.03c0.063,4.451,3.324,8.702,8.317,10.193l8.705,2.601c1.909,0.572,3.815,0.621,5.599,0.328
			c0.511,4.099,3.729,7.88,8.437,9.28l8.841,2.643c3.754,1.12,7.55,0.463,10.3-1.443c1.528,2.729,4.299,5.03,7.882,6.102l9.39,2.808
			c6.485,1.936,13.034-0.822,14.629-6.162l7.837-26.221c-8.981-0.024-19.327-0.036-30.54-0.055
			C177.694,243.067,175.961,243.062,174.183,243.062z"/>
		<polygon style="fill: #1de9b6;" points="0,125.422 0,129.426 0,132.598 0,135.765 0,236.899 0,240.017 0,241.71 23.382,241.71 23.382,239.877 
			23.382,236.759 23.382,131.094 23.382,127.897 23.382,125.422 20.24,125.422 		"/>
	</g>
</g>
<g>
</g>
<g>
</g>
<g>
</g>
<g>
</g>
<g>
</g>
<g>
</g>
<g>
</g>
<g>
</g>
<g>
</g>
<g>
</g>
<g>
</g>
<g>
</g>
<g>
</g>
<g>
</g>
<g>
</g>
</svg>
